<?xml version="1.0" standalone="no"?><svg xmlns="http://www.w3.org/2000/svg" viewBox="0 0 1440 320"><path fill="#ffa500" fill-opacity="1" d="M0,0L30,37.3C60,75,120,149,180,149.3C240,149,300,75,360,53.3C420,32,480,64,540,90.7C600,117,660,139,720,170.7C780,203,840,245,900,266.7C960,288,1020,288,1080,288C1140,288,1200,288,1260,282.7C1320,277,1380,267,1410,261.3L1440,256L1440,320L1410,320C1380,320,1320,320,1260,320C1200,320,1140,320,1080,320C1020,320,960,320,900,320C840,320,780,320,720,320C660,320,600,320,540,320C480,320,420,320,360,320C300,320,240,320,180,320C120,320,60,320,30,320L0,320Z"></path></svg>